<svg width="41" height="41" viewBox="0 0 41 41" fill="none" xmlns="http://www.w3.org/2000/svg">
<path d="M20.4998 3.41667C11.0698 3.41667 3.4165 11.07 3.4165 20.5C3.4165 29.93 11.0698 37.5833 20.4998 37.5833C29.9298 37.5833 37.5832 29.93 37.5832 20.5C37.5832 11.07 29.9298 3.41667 20.4998 3.41667ZM20.4998 28.1875C16.2461 28.1875 12.8123 24.7538 12.8123 20.5C12.8123 16.2463 16.2461 12.8125 20.4998 12.8125C24.7536 12.8125 28.1873 16.2463 28.1873 20.5C28.1873 24.7538 24.7536 28.1875 20.4998 28.1875ZM20.4998 18.7917C19.5603 18.7917 18.7915 19.5604 18.7915 20.5C18.7915 21.4396 19.5603 22.2083 20.4998 22.2083C21.4394 22.2083 22.2082 21.4396 22.2082 20.5C22.2082 19.5604 21.4394 18.7917 20.4998 18.7917Z" fill="white"/>
</svg>
