<svg width="25" height="25" viewBox="0 0 25 25" fill="none" xmlns="http://www.w3.org/2000/svg">
<path d="M12.495 0.778442C5.881 0.778442 0.5 6.16044 0.5 12.7744C0.5 19.3944 5.881 24.7784 12.495 24.7784C19.115 24.7784 24.5 19.3934 24.5 12.7744C24.5 6.16044 19.115 0.778442 12.495 0.778442ZM6.408 17.1824C7.78142 16.7617 9.20958 16.5467 10.646 16.5444C13.06 16.5444 15.443 17.1564 17.538 18.3144C17.663 18.3824 17.776 18.6064 17.828 18.8864C17.878 19.1664 17.858 19.4534 17.776 19.6024C17.7374 19.6733 17.685 19.7358 17.6221 19.7863C17.5591 19.8368 17.4867 19.8743 17.4091 19.8966C17.3316 19.919 17.2503 19.9257 17.1701 19.9164C17.0899 19.9071 17.0124 19.8819 16.942 19.8424C15.4032 18.9983 13.7105 18.4718 11.9644 18.2942C10.2183 18.1165 8.45426 18.2914 6.777 18.8084C6.7 18.8333 6.61882 18.8427 6.53818 18.8359C6.45754 18.8291 6.37906 18.8063 6.3073 18.7689C6.23555 18.7315 6.17196 18.6802 6.12023 18.618C6.0685 18.5557 6.02967 18.4838 6.006 18.4064C5.899 18.0564 6.12 17.2764 6.408 17.1824ZM5.885 12.7624C7.43655 12.3409 9.03722 12.1274 10.645 12.1274C13.539 12.1274 16.412 12.8274 18.955 14.1534C19.134 14.2434 19.265 14.3974 19.325 14.5854C19.3553 14.6804 19.3664 14.7804 19.3574 14.8797C19.3485 14.979 19.3198 15.0754 19.273 15.1634C19.046 15.6074 18.78 15.9064 18.613 15.9064C18.4912 15.9059 18.3712 15.8764 18.263 15.8204C15.9122 14.5931 13.2979 13.9568 10.646 13.9664C9.17093 13.9635 7.70226 14.1603 6.28 14.5514C6.18512 14.5774 6.08606 14.5844 5.98848 14.572C5.89089 14.5597 5.7967 14.5282 5.71127 14.4795C5.62584 14.4307 5.55085 14.3656 5.49058 14.2879C5.4303 14.2102 5.38594 14.1213 5.36 14.0264C5.248 13.6044 5.505 12.8664 5.885 12.7624V12.7624ZM5.75 9.87644C5.63744 9.90533 5.52028 9.91164 5.40527 9.89501C5.29026 9.87837 5.17969 9.83912 5.07993 9.77953C4.98017 9.71993 4.8932 9.64117 4.82405 9.54779C4.75489 9.4544 4.70491 9.34824 4.677 9.23544C4.554 8.73744 4.865 8.15944 5.317 8.04544C7.06051 7.61601 8.84939 7.39811 10.645 7.39644C14.095 7.39644 17.401 8.17244 20.469 9.70344C20.6798 9.80826 20.8403 9.99249 20.9153 10.2156C20.9904 10.4388 20.9737 10.6826 20.869 10.8934C20.726 11.1814 20.416 11.4914 20.074 11.4914C19.9399 11.4909 19.8075 11.4613 19.686 11.4044C16.8806 9.99708 13.7836 9.26883 10.645 9.27844C9.01 9.27844 7.363 9.47944 5.75 9.87644Z" fill="black"/>
</svg>
