<svg width="25" height="25" viewBox="0 0 25 25" fill="none" xmlns="http://www.w3.org/2000/svg">
<g clip-path="url(#clip0_5_21)">
<path d="M12.495 0.778564C5.881 0.778564 0.5 6.16056 0.5 12.7746C0.5 19.3946 5.881 24.7786 12.495 24.7786C19.115 24.7786 24.5 19.3936 24.5 12.7746C24.5 6.16056 19.115 0.778564 12.495 0.778564ZM6.408 17.1826C7.78142 16.7618 9.20958 16.5468 10.646 16.5446C13.06 16.5446 15.443 17.1566 17.538 18.3146C17.663 18.3826 17.776 18.6066 17.828 18.8866C17.878 19.1666 17.858 19.4536 17.776 19.6026C17.7374 19.6734 17.685 19.7359 17.6221 19.7864C17.5591 19.8369 17.4867 19.8744 17.4091 19.8968C17.3316 19.9191 17.2503 19.9258 17.1701 19.9165C17.0899 19.9072 17.0124 19.8821 16.942 19.8426C15.4032 18.9984 13.7105 18.4719 11.9644 18.2943C10.2183 18.1167 8.45426 18.2915 6.777 18.8086C6.7 18.8335 6.61882 18.8428 6.53818 18.836C6.45754 18.8292 6.37906 18.8065 6.3073 18.769C6.23555 18.7316 6.17196 18.6803 6.12023 18.6181C6.0685 18.5559 6.02967 18.4839 6.006 18.4066C5.899 18.0566 6.12 17.2766 6.408 17.1826ZM5.885 12.7626C7.43655 12.3411 9.03722 12.1275 10.645 12.1276C13.539 12.1276 16.412 12.8276 18.955 14.1536C19.134 14.2436 19.265 14.3976 19.325 14.5856C19.3553 14.6805 19.3664 14.7806 19.3574 14.8798C19.3485 14.9791 19.3198 15.0756 19.273 15.1636C19.046 15.6076 18.78 15.9066 18.613 15.9066C18.4912 15.906 18.3712 15.8766 18.263 15.8206C15.9122 14.5933 13.2979 13.9569 10.646 13.9666C9.17093 13.9636 7.70226 14.1604 6.28 14.5516C6.18512 14.5775 6.08606 14.5845 5.98848 14.5721C5.89089 14.5598 5.7967 14.5284 5.71127 14.4796C5.62584 14.4309 5.55085 14.3658 5.49058 14.288C5.4303 14.2103 5.38594 14.1214 5.36 14.0266C5.248 13.6046 5.505 12.8666 5.885 12.7626V12.7626ZM5.75 9.87656C5.63744 9.90545 5.52028 9.91176 5.40527 9.89513C5.29026 9.87849 5.17969 9.83925 5.07993 9.77965C4.98017 9.72006 4.8932 9.64129 4.82405 9.54791C4.75489 9.45452 4.70491 9.34837 4.677 9.23556C4.554 8.73756 4.865 8.15956 5.317 8.04556C7.06051 7.61613 8.84939 7.39823 10.645 7.39656C14.095 7.39656 17.401 8.17256 20.469 9.70356C20.6798 9.80838 20.8403 9.99261 20.9153 10.2158C20.9904 10.4389 20.9737 10.6827 20.869 10.8936C20.726 11.1816 20.416 11.4916 20.074 11.4916C19.9399 11.4911 19.8075 11.4614 19.686 11.4046C16.8806 9.9972 13.7836 9.26895 10.645 9.27856C9.01 9.27856 7.363 9.47956 5.75 9.87656Z" fill="black"/>
</g>
<defs>
<clipPath id="clip0_5_21">
<rect width="24" height="24" fill="white" transform="translate(0.5 0.778564)"/>
</clipPath>
</defs>
</svg>
