<svg width="73" height="73" viewBox="0 0 73 73" fill="none" xmlns="http://www.w3.org/2000/svg">
<g opacity="0.6">
<path d="M47.1458 42.5833H44.7429L43.8913 41.7621C46.8721 38.2946 48.6667 33.7929 48.6667 28.8958C48.6667 17.9763 39.8154 9.125 28.8958 9.125C17.9763 9.125 9.125 17.9763 9.125 28.8958C9.125 39.8154 17.9763 48.6667 28.8958 48.6667C33.7929 48.6667 38.2946 46.8721 41.7621 43.8913L42.5833 44.7429V47.1458L57.7917 62.3237L62.3237 57.7917L47.1458 42.5833ZM28.8958 42.5833C21.3221 42.5833 15.2083 36.4696 15.2083 28.8958C15.2083 21.3221 21.3221 15.2083 28.8958 15.2083C36.4696 15.2083 42.5833 21.3221 42.5833 28.8958C42.5833 36.4696 36.4696 42.5833 28.8958 42.5833Z" fill="black"/>
</g>
</svg>
